# xmcd
#
# Track frame offsets:
#	150
#	10102
#	24658
#	40583
#	56194
#	71517
#	80119
#	97475
#	109530
#	124779
#	136223
#	149832
#	165434
#	179757
#	192443
#	207927
#	212167
#	224018
#	236383
#	249248
#
# Disc length: 3546 seconds
#
# Revision: 1
# Processed by: cddbd v1.5.2PL0 Copyright (c) Steve Scherf et al.
# Submitted via: audiograbber 1.83.01
#
DISCID=330dd814
DTITLE=Various Artist - Η Μηχανη Του Χρονου
DYEAR=2007
DGENRE=Pop
TTITLE0=Κωστας Τουρνας - Ο πιο καλος τραγουδιστης
TTITLE1=Μαικ Ροζακης and The Playboys - Μια μερα θα 'ρθεις
TTITLE2=Olympians - Το κοριτσι του Μαη (Venus)
TTITLE3=Poll - Ανθρωπε αγαπα
TTITLE4=Ληδα - Σπυρος - Οταν θα γεννηθει ο γιος σου
TTITLE5=Bluebirds - Julie
TTITLE6=Κωστας Τουρνας - Κυριες και κυριοι
TTITLE7=Μαρινα - Να' μουν αετος
TTITLE8=Poll - Ελα ηλιε μου
TTITLE9=Κωστας Τουρνας - Η μηχανη του χρονου
TTITLE10=Charms - Να μεινουμε παντα παιδια
TTITLE11=Μαικ Ροζακης and The Playboys - Ετσι ειναι η ζωη
TTITLE12=Ληδα - Σπυρος - Οι μηχανες μου
TTITLE13=Γιωργος Πολυχρονιαδης - Μαγισσα
TTITLE14=Poll - Στην πηγη μια κοπελα
TTITLE15=Bluebirds - Προσευχη
TTITLE16=Dragons - My dog mozart
TTITLE17=Charms - Αγορακι (Mendocino)
TTITLE18=Dorians - Γκριζος ουρανος
TTITLE19=Socrates - Starvation
EXTD=
EXTT0=
EXTT1=
EXTT2=
EXTT3=
EXTT4=
EXTT5=
EXTT6=
EXTT7=
EXTT8=
EXTT9=
EXTT10=
EXTT11=
EXTT12=
EXTT13=
EXTT14=
EXTT15=
EXTT16=
EXTT17=
EXTT18=
EXTT19=
PLAYORDER=
